<?xml version="1.0" encoding="UTF-8" standalone="no"?>
<svg
   xmlns:dc="http://purl.org/dc/elements/1.1/"
   xmlns:cc="http://creativecommons.org/ns#"
   xmlns:rdf="http://www.w3.org/1999/02/22-rdf-syntax-ns#"
   xmlns:svg="http://www.w3.org/2000/svg"
   xmlns="http://www.w3.org/2000/svg"
   xmlns:sodipodi="http://sodipodi.sourceforge.net/DTD/sodipodi-0.dtd"
   xmlns:inkscape="http://www.inkscape.org/namespaces/inkscape"
   version="1.2"
   x="0px"
   y="0px"
   viewBox="0 0 80 90"
   xml:space="preserve"
   id="svg2"
   inkscape:version="0.91 r13725"
   sodipodi:docname="brain.svg"
   width="80"
   height="90"><metadata
     id="metadata14"><rdf:RDF><cc:Work
         rdf:about=""><dc:format>image/svg+xml</dc:format><dc:type
           rdf:resource="http://purl.org/dc/dcmitype/StillImage" /><dc:title></dc:title></cc:Work></rdf:RDF></metadata><defs
     id="defs12" /><sodipodi:namedview
     pagecolor="#ffffff"
     bordercolor="#666666"
     borderopacity="1"
     objecttolerance="10"
     gridtolerance="10"
     guidetolerance="10"
     inkscape:pageopacity="0"
     inkscape:pageshadow="2"
     inkscape:window-width="709"
     inkscape:window-height="480"
     id="namedview10"
     showgrid="false"
     fit-margin-top="0"
     fit-margin-left="0"
     fit-margin-right="0"
     fit-margin-bottom="0"
     inkscape:zoom="1.888"
     inkscape:cx="58.273305"
     inkscape:cy="31.440678"
     inkscape:window-x="0"
     inkscape:window-y="22"
     inkscape:window-maximized="0"
     inkscape:current-layer="svg2" /><path
     d="M 5.049,68.715 C 5.584,75.353 10.46,80.786 16.828,82.163 19.402,86.91 24.408,90 30,90 33.838,90 37.344,88.551 40,86.171 42.656,88.551 46.162,90 50,90 55.592,90 60.598,86.91 63.173,82.162 69.541,80.785 74.417,75.353 74.952,68.714 78.121,65.898 80,61.825 80,57.5 80,55.338 79.525,53.201 78.63,51.25 79.525,49.298 80,47.162 80,45 80,40.605 78.131,36.567 74.945,33.769 74.982,33.348 75,32.924 75,32.5 75,28.174 73.121,24.101 69.95,21.284 69.614,17.179 67.59,13.391 64.402,10.821 62.579,4.51 56.76,0 50,0 46.162,0 42.656,1.449 40,3.829 37.344,1.449 33.838,0 30,0 23.24,0 17.421,4.51 15.597,10.822 12.409,13.392 10.385,17.179 10.049,21.285 6.879,24.101 5,28.174 5,32.5 5,32.924 5.018,33.348 5.055,33.769 1.869,36.567 0,40.605 0,45 0,47.162 0.475,49.298 1.37,51.25 0.475,53.201 0,55.338 0,57.5 c 0,4.325 1.879,8.398 5.049,11.215 z m 37.451,2.83 2.035,-1.017 C 45.225,70.183 45.999,70 46.771,70 l 5.729,0 0,-5 -5.729,0 c -1.472,0 -2.941,0.341 -4.271,0.969 l 0,-16.893 C 44.856,48.045 47.429,47.5 50,47.5 l 0,-5 c -2.543,0 -5.085,0.427 -7.5,1.232 l 0,-17.952 c 1.642,1.117 3.577,1.72 5.606,1.72 l 4.394,0 0,-5 -4.394,0 c -1.336,0 -2.591,-0.52 -3.536,-1.464 L 42.5,18.965 42.5,15 c 0,-4.136 3.364,-7.5 7.5,-7.5 2.425,0 4.604,1.164 5.979,2.986 l -5.247,5.247 3.535,3.535 3.7,-3.7 0.721,0.408 c 2.352,1.333 3.812,3.833 3.812,6.524 0,0.101 -0.007,0.212 -0.013,0.322 l -2.832,3.583 c -1.368,1.73 -2.127,3.89 -2.151,6.095 l -10.004,0 0,5 10,0 0,5 5,0 0,-9.894 c 0,-1.121 0.383,-2.222 1.078,-3.101 l 1.773,-2.243 c 1.354,1.384 2.15,3.256 2.15,5.237 0,0.887 -0.164,1.771 -0.486,2.629 l -0.802,2.133 2.051,0.995 c 2.612,1.27 4.236,3.853 4.236,6.744 0,0.866 -0.146,1.707 -0.428,2.5 l -9.572,0 0,5 8.097,0 0.252,0.314 c 1.08,1.346 1.65,2.966 1.65,4.686 0,1.693 -0.578,3.309 -1.592,4.607 C 69.126,59.34 66.027,57.5 62.499,57.5 l -5,0 c -2.757,0 -5,-2.243 -5,-5 l -5,0 c 0,5.514 4.486,10 10,10 l 5,0 c 2.757,0 5,2.243 5,5 0,3.255 -2.088,6.024 -5,7.058 l 0,-4.558 -5,0 0,5.904 -0.246,0.959 C 56.405,80.182 53.421,82.5 50,82.5 c -0.457,0 -0.903,-0.048 -1.338,-0.126 l 3.106,-3.106 -3.535,-3.535 -4.025,4.025 C 43.141,78.462 42.5,76.805 42.5,75 l 0,-3.455 z M 7.928,47.5 C 7.646,46.707 7.5,45.866 7.5,45 c 0,-2.891 1.624,-5.474 4.237,-6.743 l 2.051,-0.995 -0.802,-2.133 C 12.664,34.271 12.5,33.387 12.5,32.5 c 0,-1.699 0.583,-3.319 1.603,-4.62 l 6.693,8.366 c 0.366,0.457 0.776,0.865 1.205,1.245 l -4.081,6.122 4.16,2.773 4.411,-6.616 c 0.687,0.147 1.394,0.23 2.114,0.23 l 3.895,0 0,-5 -3.896,0 C 27.077,35 25.654,34.316 24.7,33.124 L 17.686,24.357 17.572,23.474 C 17.523,23.09 17.5,22.781 17.5,22.5 c 0,-2.691 1.46,-5.191 3.812,-6.524 l 0.721,-0.408 3.7,3.7 3.535,-3.535 -5.247,-5.247 C 25.397,8.664 27.575,7.5 30,7.5 c 4.136,0 7.5,3.364 7.5,7.5 l 0,9.22 C 35.858,23.103 33.923,22.5 31.894,22.5 l -4.394,0 0,5 4.394,0 c 1.336,0 2.591,0.52 3.536,1.464 l 2.071,2.071 0,14.76 c -2.1,0.628 -4.397,0.461 -6.382,-0.531 l -2.236,4.472 c 1.916,0.958 4.017,1.437 6.118,1.437 0.838,0 1.673,-0.098 2.5,-0.25 l 0,9.077 -5.365,0 c -1.906,0 -3.62,-1.059 -4.472,-2.764 l -2.927,-5.854 -4.472,2.236 2.927,5.854 C 24.896,62.882 28.323,65 32.135,65 l 5.365,0 0,10 c 0,3.258 -2.092,6.03 -5,7.063 l 0,-3.956 c 0,-2.671 -1.04,-5.182 -2.929,-7.071 l -2.803,-2.803 -3.535,3.535 2.803,2.803 c 0.944,0.945 1.464,2.2 1.464,3.536 l 0,3.961 c -2.301,-0.816 -4.121,-2.731 -4.754,-5.204 l -0.5,-1.951 -2.012,0.072 L 20,75 c -4.136,0 -7.5,-3.364 -7.5,-7.5 0,-0.016 0.002,-0.034 0.002,-0.05 l 6.604,-5.534 -3.212,-3.832 -5.916,4.958 C 8.427,61.635 7.5,59.634 7.5,57.5 c 0,-1.72 0.571,-3.34 1.65,-4.686 l 0.252,-0.314 5.598,0 0,-5 -7.072,0 z"
     id="path4"
     inkscape:connector-curvature="0" /></svg>