<?xml version="1.0" encoding="UTF-8" standalone="no"?><!DOCTYPE svg PUBLIC "-//W3C//DTD SVG 1.1//EN" "http://www.w3.org/Graphics/SVG/1.1/DTD/svg11.dtd"><svg width="100%" height="100%" viewBox="0 0 173 173" version="1.1" xmlns="http://www.w3.org/2000/svg" xmlns:xlink="http://www.w3.org/1999/xlink" xml:space="preserve" style="fill-rule:evenodd;clip-rule:evenodd;stroke-linecap:round;stroke-linejoin:round;stroke-miterlimit:1.5;"><g id="icon"><g id="Circle"><circle cx="86.62" cy="86.62" r="85" style="fill:none;stroke:#ecaa94;stroke-width:1px;"/></g><g id="Key"><path d="M125.223,47.013c3.295,3.295 3.426,8.514 0.288,11.652c-3.139,3.137 -8.356,3.008 -11.653,-0.288c-3.299,-3.299 -3.427,-8.516 -0.289,-11.654c3.139,-3.137 8.355,-3.009 11.654,0.29Zm17.697,19.288l-6.159,-22.979c-0.916,-3.418 -4.431,-6.933 -7.849,-7.848l-22.979,-6.16c-3.419,-0.915 -8.218,0.371 -10.722,2.874l-12.845,12.845c-2.503,2.503 -3.789,7.304 -2.874,10.722l5.129,19.131l-12.255,12.252l1.178,4.399l-5.992,5.992l-4.398,-1.18l-8.049,8.049l1.179,4.399l-5.991,5.992l-4.4,-1.179l-4.96,4.959l0.084,13.605l4.298,0l45.831,-45.829l3.14,0.875l-44.957,44.955l5.212,0l44.19,-44.191l17.748,4.757c3.418,0.916 8.22,-0.371 10.721,-2.874l12.846,-12.844c2.502,-2.502 3.789,-7.304 2.874,-10.722Z" style="fill:#030404;fill-rule:nonzero;"/></g></g></svg>