<?xml version="1.0" encoding="UTF-8" standalone="no"?><!DOCTYPE svg PUBLIC "-//W3C//DTD SVG 1.1//EN" "http://www.w3.org/Graphics/SVG/1.1/DTD/svg11.dtd"><svg width="250px" height="250px" version="1.1" xmlns="http://www.w3.org/2000/svg" xmlns:xlink="http://www.w3.org/1999/xlink" xml:space="preserve" style="fill-rule:evenodd;clip-rule:evenodd;stroke-linecap:round;stroke-linejoin:round;stroke-miterlimit:1.5;"><g id="icon"><g id="Circle"><circle cx="125" cy="125" r="122.917" style="fill:none;stroke:#ecaa94;stroke-width:1.4px;"/></g><g id="Key"><path d="M169.729,80.068c4.446,4.409 4.622,11.391 0.388,15.589c-4.235,4.197 -11.275,4.024 -15.724,-0.386c-4.451,-4.413 -4.623,-11.392 -0.389,-15.59c4.235,-4.198 11.273,-4.026 15.725,0.387Zm23.879,25.806l-8.311,-30.744c-1.236,-4.573 -5.978,-9.275 -10.591,-10.5l-31.006,-8.24c-4.612,-1.225 -11.088,0.495 -14.467,3.845l-17.333,17.184c-3.377,3.349 -5.112,9.772 -3.877,14.345l6.92,25.594l-16.536,16.393l1.59,5.886l-8.085,8.016l-5.934,-1.579l-10.861,10.768l1.59,5.886l-8.083,8.017l-5.937,-1.578l-6.692,6.635l0.112,18.202l5.8,0l61.841,-61.314l4.236,1.17l-60.661,60.145l7.033,0l59.626,-59.122l23.949,6.364c4.611,1.225 11.091,-0.497 14.466,-3.845l17.332,-17.184c3.377,-3.348 5.113,-9.772 3.879,-14.344Z" style="fill:#030404;fill-rule:nonzero;"/></g></g></svg>