<?xml version="1.0" encoding="UTF-8" standalone="no"?><!DOCTYPE svg PUBLIC "-//W3C//DTD SVG 1.1//EN" "http://www.w3.org/Graphics/SVG/1.1/DTD/svg11.dtd"><svg width="250px" height="250px" version="1.1" xmlns="http://www.w3.org/2000/svg" xmlns:xlink="http://www.w3.org/1999/xlink" xml:space="preserve" style="fill-rule:evenodd;clip-rule:evenodd;stroke-linecap:round;stroke-linejoin:round;stroke-miterlimit:1.5;"><g id="icon"><g id="Circle"><circle cx="125" cy="125" r="122.917" style="fill:none;stroke:#ecaa94;stroke-width:1.4px;"/></g><g id="Key"><path d="M186.633,62.327c5.37,5.324 5.582,13.756 0.47,18.825c-5.115,5.07 -13.617,4.861 -18.99,-0.465c-5.375,-5.33 -5.583,-13.758 -0.469,-18.828c5.114,-5.07 13.613,-4.862 18.989,0.468Zm28.837,31.164l-10.036,-37.127c-1.492,-5.523 -7.219,-11.201 -12.789,-12.681l-37.445,-9.951c-5.57,-1.48 -13.39,0.599 -17.471,4.643l-20.932,20.753c-4.078,4.044 -6.174,11.801 -4.682,17.323l8.357,30.909l-19.969,19.796l1.92,7.108l-9.764,9.681l-7.167,-1.907l-13.115,13.004l1.92,7.108l-9.762,9.682l-7.17,-1.907l-8.081,8.013l0.136,21.982l7.004,0l74.681,-74.045l5.116,1.413l-73.257,72.634l8.494,0l72.007,-71.399l28.921,7.686c5.569,1.479 13.394,-0.6 17.47,-4.644l20.931,-20.751c4.078,-4.044 6.174,-11.801 4.683,-17.323Z" style="fill:#030404;fill-rule:nonzero;"/></g></g></svg>