<?xml version="1.0" encoding="UTF-8" standalone="no"?>
<svg
   xmlns:dc="http://purl.org/dc/elements/1.1/"
   xmlns:cc="http://creativecommons.org/ns#"
   xmlns:rdf="http://www.w3.org/1999/02/22-rdf-syntax-ns#"
   xmlns:svg="http://www.w3.org/2000/svg"
   xmlns="http://www.w3.org/2000/svg"
   xmlns:sodipodi="http://sodipodi.sourceforge.net/DTD/sodipodi-0.dtd"
   xmlns:inkscape="http://www.inkscape.org/namespaces/inkscape"
   version="1.1"
   x="0px"
   y="0px"
   viewBox="0 0 52.089878 61.900002"
   enable-background="new 0 0 63 63"
   xml:space="preserve"
   id="svg2"
   inkscape:version="0.91 r13725"
   sodipodi:docname="female.svg"
   width="52.089878"
   height="61.900002"><metadata
     id="metadata14"><rdf:RDF><cc:Work
         rdf:about=""><dc:format>image/svg+xml</dc:format><dc:type
           rdf:resource="http://purl.org/dc/dcmitype/StillImage" /><dc:title></dc:title></cc:Work></rdf:RDF></metadata><defs
     id="defs12" /><sodipodi:namedview
     pagecolor="#ffffff"
     bordercolor="#666666"
     borderopacity="1"
     objecttolerance="10"
     gridtolerance="10"
     guidetolerance="10"
     inkscape:pageopacity="0"
     inkscape:pageshadow="2"
     inkscape:window-width="1920"
     inkscape:window-height="1178"
     id="namedview10"
     showgrid="false"
     fit-margin-top="0"
     fit-margin-left="0"
     fit-margin-right="0"
     fit-margin-bottom="0"
     inkscape:zoom="2.9968254"
     inkscape:cx="26.731373"
     inkscape:cy="23.125"
     inkscape:window-x="0"
     inkscape:window-y="22"
     inkscape:window-maximized="1"
     inkscape:current-layer="svg2" /><path
     d="m 51.664,43.8 c -0.4,-2 -2,-6.8 -7.6,-8.5 0.3,0 -5.2,-1.5 -8,-1.8 -1.8,-0.2 -3.1,-1.8 -3.1,-3.6 l 0,-1.6 c 0.5,-0.5 1,-1.1 1.4,-1.8 5,4.4 10.8,4.6 10.8,4.6 0,0 0,-7.2 -6.9,-13.1 0.7,-2.3 0.7,-5 0.7,-5 l 0,0 c 0,-7.2 -5.8,-13 -13,-13 -7.2,0 -13,5.8 -13,13 0,0 0.1,2.9 0.8,5 -6.8,5.7 -6.9,13.2 -6.9,13.2 0,0 5.6,0 10.8,-4.6 0.4,0.6 0.9,1.2 1.3,1.7 l 0,1.7 c 0,1.8 -1.3,3.4 -3.1,3.6 -3,0.3 -7.9,1.8 -7.9,1.8 -4,1.2 -6.7,4.5 -7.6,8.6 -1.3,6.6 1.3,14.4 1.3,14.4 0,0 10.6,3.5 24.4,3.5 14.1,0 24.5,-3.5 24.5,-3.5 0,0 2.5,-7.7 1.1,-14.6 z m -36.6,-29.9 c 4.3,-0.1 8.3,-2 11,-5.3 2.7,3.3 6.7,5.2 11,5.3 -0.5,6.4 -5.4,16 -11,16 -5.6,0 -10.5,-9.6 -11,-16 z m 27.7,14.8 c -2.6,-0.6 -5.1,-1.9 -7.3,-3.9 0.9,-1.5 1.6,-3.2 2.2,-4.8 2.6,2.5 4.4,5.5 5.1,8.7 z M 26.064,1.9 c 5.7,0 10.4,4.4 11,10 -7.4,-0.3 -9.8,-5.3 -11,-6.7 0,0 -3.3,6.6 -10.9,6.7 0.5,-5.6 5.2,-10 10.9,-10 z m -16.8,26.8 c 0.7,-3.2 2.5,-6.2 5.1,-8.7 0.6,1.6 1.3,3.3 2.2,4.8 -2.1,1.9 -4.7,3.3 -7.3,3.9 z m 11.8,1.3 c 1.5,1.2 3.2,1.9 5,1.9 1.8,0 3.4,-0.7 4.9,-1.8 0.1,2.6 2,4.8 4.5,5.3 0,0 0,6 -0.4,8 -5.6,3.1 -12.4,3.1 -18,0 -0.4,-2 -0.4,-8 -0.4,-8 2.5,-0.6 4.3,-2.8 4.4,-5.4 z m -17.8,26.8 c 0,0 -1.9,-5.9 -0.8,-12.6 0.5,-3.3 2.9,-6 6.2,-6.9 0,0 3.9,-1.2 6,-1.5 0,0 -1.6,12 7.3,24.1 -6.3,-0.4 -12.6,-1.4 -18.7,-3.1 z m 21.3,3.1 c -3.4,-4.1 -5.8,-8.9 -7,-14.1 2.7,1.2 5.6,1.9 8.5,1.9 2.9,0 5.8,-0.6 8.5,-1.9 -1.2,5.1 -3.6,10 -7,14.1 -1,0 -2,0 -3,0 z m 24.3,-3.1 c -6.1,1.7 -12.4,2.7 -18.7,3 8.4,-11.1 7.3,-24.1 7.3,-24.1 2.1,0.3 6,1.5 6,1.5 4.7,1.5 6,5.3 6.2,6.9 1.1,6.6 -0.8,12.7 -0.8,12.7 z"
     id="path4"
     inkscape:connector-curvature="0" /></svg>