<?xml version="1.0" encoding="UTF-8" standalone="no"?>
<svg
   xmlns:dc="http://purl.org/dc/elements/1.1/"
   xmlns:cc="http://creativecommons.org/ns#"
   xmlns:rdf="http://www.w3.org/1999/02/22-rdf-syntax-ns#"
   xmlns:svg="http://www.w3.org/2000/svg"
   xmlns="http://www.w3.org/2000/svg"
   xmlns:sodipodi="http://sodipodi.sourceforge.net/DTD/sodipodi-0.dtd"
   xmlns:inkscape="http://www.inkscape.org/namespaces/inkscape"
   version="1.1"
   x="0px"
   y="0px"
   viewBox="0 0 169.73674 208.39999"
   xml:space="preserve"
   id="svg2"
   inkscape:version="0.91 r13725"
   sodipodi:docname="male.svg"
   width="169.73674"
   height="208.39999"><metadata
     id="metadata18"><rdf:RDF><cc:Work
         rdf:about=""><dc:format>image/svg+xml</dc:format><dc:type
           rdf:resource="http://purl.org/dc/dcmitype/StillImage" /><dc:title></dc:title></cc:Work></rdf:RDF></metadata><defs
     id="defs16" /><sodipodi:namedview
     pagecolor="#ffffff"
     bordercolor="#666666"
     borderopacity="1"
     objecttolerance="10"
     gridtolerance="10"
     guidetolerance="10"
     inkscape:pageopacity="0"
     inkscape:pageshadow="2"
     inkscape:window-width="1920"
     inkscape:window-height="1178"
     id="namedview14"
     showgrid="false"
     fit-margin-top="0"
     fit-margin-left="0"
     fit-margin-right="0"
     fit-margin-bottom="0"
     inkscape:zoom="2.085965"
     inkscape:cx="79.329229"
     inkscape:cy="46.842708"
     inkscape:window-x="0"
     inkscape:window-y="22"
     inkscape:window-maximized="1"
     inkscape:current-layer="svg2" /><g
     id="g4"
     transform="translate(-43.731632,-24)"><path
       d="m 213.4,171.8 c -3.3,-32.4 -28.2,-42.1 -46.3,-49.2 -7.9,-3.1 -14.7,-5.7 -18.1,-9.4 0.1,-0.3 0.7,-0.9 1.4,-1.1 10.7,-3 18.6,-12.7 18.6,-23.1 l 0,-26.6 C 169,41.6 150.4,24.1 128.9,24 c 0,0 0,0 -0.1,0 C 107.6,24 90,41.8 90,62.9 L 90,89 c 0,10.7 7.2,20.2 17.7,23.1 0.4,0.1 0.5,0.5 0.5,0.6 0.1,0.3 -0.1,0.4 -0.1,0.5 -3.3,3.7 -10.2,6.4 -18.1,9.5 -18.1,7.1 -43,16.8 -46.2,49.2 -0.6,5.7 2.8,11.3 8.2,13.5 l 58.8,24.1 -0.6,6.7 c -0.4,4.3 1.8,8.4 5.5,10.5 l 7.7,4.3 c 1.6,0.9 3.5,1.4 5.3,1.4 1.8,0 3.7,-0.5 5.3,-1.4 l 7.6,-4.3 c 3.8,-2.1 5.9,-6.2 5.5,-10.5 l -0.6,-6.7 58.7,-24 c 5.4,-2.4 8.8,-7.9 8.2,-13.7 z m -75.6,48 -7.6,4.3 c -0.9,0.5 -2,0.5 -3,0 l -7.7,-4.3 c -1,-0.6 -1.6,-1.7 -1.5,-2.9 l 5.1,-53.8 c 0.2,-1.8 1,-3.4 2.2,-4.6 l 1,-1 c 1.1,-1.1 1.9,-2.4 2.4,-3.9 0.4,1.4 1.2,2.8 2.3,3.8 l 1,1 c 0,0 0,0 0,0 1.2,1.2 2,2.8 2.2,4.5 l 5.1,53.9 c 0.1,1.2 -0.5,2.4 -1.5,3 z m -15,-81.6 c 0,-0.4 0.2,-0.7 0.5,-0.9 l 4.8,-3.1 c 0.2,-0.1 0.4,-0.2 0.6,-0.2 0.2,0 0.4,0.1 0.6,0.2 l 4.8,3.1 c 0.3,0.2 0.5,0.5 0.5,0.9 0,2 -0.9,3.9 -2.4,5.2 l -1,0.8 c -1.2,1.1 -2.1,2.5 -2.6,4.1 -0.5,-1.6 -1.4,-3 -2.6,-4.2 l -0.9,-0.8 c -1.4,-1.2 -2.3,-3.1 -2.3,-5.1 z m 79.4,39.7 -56.5,23.1 -3.7,-38.8 c -0.3,-3.6 -1.9,-6.9 -4.5,-9.4 l -1,-1 c -0.3,-0.3 -0.3,-0.6 -0.3,-0.8 0,-0.2 0.1,-0.5 0.4,-0.8 l 1,-0.8 c 3.2,-2.8 5,-6.9 5,-11.1 0,-3.1 -1.5,-5.9 -4.1,-7.5 l -4.8,-3.1 c -3,-1.9 -6.8,-1.9 -9.7,0 l -4.8,3.1 c -2.6,1.7 -4.1,4.5 -4.1,7.5 0,4.2 1.8,8.3 5,11.1 l 0.9,0.8 c 0.3,0.3 0.4,0.6 0.4,0.8 0,0.2 -0.1,0.5 -0.3,0.8 l -1,1 c -2.6,2.5 -4.3,5.9 -4.6,9.6 L 111.9,201.2 55,177.9 c -2.2,-0.9 -3.5,-3.1 -3.3,-5.3 2.8,-27.5 23.2,-35.5 41.1,-42.5 8.9,-3.5 16.6,-6.5 21.2,-11.6 1.9,-2.2 2.6,-5.2 1.8,-8 -0.9,-2.9 -3,-5.2 -5.9,-6 -7.1,-2 -11.8,-8.3 -11.8,-15.4 l 0,-26.2 C 98,46.2 112.3,32 129.2,32 146.1,32 161,46.2 161,62.4 l 0,26.6 c 0,7.8 -6.5,13.7 -12.7,15.4 -3.2,0.9 -5.9,3.5 -6.8,6.6 -0.8,2.7 -0.3,5.4 1.6,7.4 4.6,5.1 12.3,8.1 21.2,11.6 18.1,7 38.5,15 41.3,42.5 0.1,2.4 -1.3,4.6 -3.4,5.4 z"
       id="path6"
       inkscape:connector-curvature="0" /><path
       d="m 144.7,90 c 0,-1.1 -0.9,-2 -2,-2 -1.1,0 -2,0.9 -2,2 0,4.2 -4,4.9 -4.7,5 l -11.3,0 c -1.1,0 -2,0.9 -2,2 0,1.1 0.9,2 2,2 l 11.5,0 0.1,0 c 2.9,-0.3 8.4,-2.5 8.4,-9 z"
       id="path8"
       inkscape:connector-curvature="0" /></g></svg>