<?xml version="1.0" encoding="UTF-8" standalone="no"?><!DOCTYPE svg PUBLIC "-//W3C//DTD SVG 1.1//EN" "http://www.w3.org/Graphics/SVG/1.1/DTD/svg11.dtd"><svg width="100%" height="100%" viewBox="0 0 172 172" version="1.1" xmlns="http://www.w3.org/2000/svg" xmlns:xlink="http://www.w3.org/1999/xlink" xml:space="preserve" style="fill-rule:evenodd;clip-rule:evenodd;stroke-linecap:round;stroke-linejoin:round;stroke-miterlimit:1.5;"><g id="Man"><g id="Man1"><path d="M120.168,96.462c-6.1,-5.372 -12.891,-9.331 -20.313,-11.857c-0.021,0.036 -0.041,0.075 -0.067,0.12c1.487,6.394 -4.621,11.673 -13.9,11.673c-9.276,0 -15.388,-5.279 -13.899,-11.673c-0.024,-0.045 -0.042,-0.084 -0.065,-0.12c-7.428,2.526 -12.448,5.887 -18.885,10.781c-7.635,5.803 -9.378,18.331 -9.839,27.943c11.189,4.893 26.245,7.908 42.843,7.908c16.56,0 31.575,-3.002 42.757,-7.877c-0.552,-9.378 -2.288,-21.309 -8.632,-26.898Zm-36.333,-33.098c-0.442,1.374 -1.255,2.041 -2.503,2.041l-6.746,0c-0.942,0 -1.703,-0.833 -1.703,-1.845l-0.451,-3.02c0,-1.014 0.769,-1.843 1.703,-1.843l8.877,0c0.592,0 1.162,0.245 1.491,0.629c0.182,0.215 0.268,0.449 0.25,0.69c-0.111,1.393 -0.527,2.105 -0.918,3.348Zm3.436,-4.038c0.328,-0.384 0.907,-0.629 1.495,-0.629l8.875,0c0.938,0 1.7,0.829 1.7,1.843l-0.44,3.02c0,1.012 -0.766,1.845 -1.71,1.845l-6.745,0c-1.248,0 -2.066,-0.667 -2.499,-2.041c-0.398,-1.243 -0.809,-1.955 -0.918,-3.348c-0.024,-0.241 0.062,-0.475 0.242,-0.69Zm-0.404,4.429c0.755,2.38 2.368,2.877 3.579,2.877l6.745,0c1.57,0 2.84,-1.38 2.84,-3.072l0.448,-3.762c0,-1.686 -1.272,-3.069 -2.838,-3.069l-23.506,0c-1.564,0 -2.832,1.383 -2.832,3.069l0.441,3.762c0,1.692 1.272,3.072 2.842,3.072l6.746,0c1.212,0 2.819,-0.497 3.576,-2.877c0.417,-1.301 0.856,-2.855 0.977,-4.373c0,-0.047 -0.022,-0.103 -0.022,-0.145l0.051,0c0,0.042 -0.024,0.098 -0.024,0.145c0.125,1.518 0.563,3.072 0.977,4.373Zm-18.073,-1.572c0.397,0.557 1.206,0.271 1.206,0.271c0,0 -1.791,-13.068 0.036,-15.478c3.361,-4.416 4.74,-1.478 15.813,-1.364c11.078,-0.114 12.449,-3.052 15.817,1.364c1.824,2.41 0.027,15.478 0.027,15.478c0,0 0.814,0.286 1.213,-0.271c1.201,-1.679 2.876,-7.693 2.917,-10.51c0.051,-3.619 -0.058,-8.794 -1.81,-13.793c-0.696,-1.988 -0.819,-4.675 -0.819,-4.675c0,0 -1.797,-0.294 -2.518,-1.021c-1.088,-1.097 -1.257,-3.734 -1.257,-3.734c0,0 -2.339,1.096 -3.371,0.723c-1.505,-0.551 -3.51,-2.619 -3.51,-2.619c0,0 -1.358,1.733 -2.193,1.659c-1.395,-0.127 -6.123,-3.563 -6.123,-3.563c0,0 -1.29,3.436 -2.693,3.563c-0.827,0.074 -2.183,-1.659 -2.183,-1.659c0,0 -2.353,2.068 -3.86,2.619c-1.024,0.373 -3.372,-0.723 -3.372,-0.723c0,0 0.012,2.751 -1.072,3.848c-1.081,1.089 -3.001,1.421 -3.001,1.421c0,0 -0.199,1.605 -0.579,3.869c-0.84,4.998 -1.624,8.283 -1.504,13.938c0.104,4.952 1.634,8.978 2.836,10.657Z" style="fill-rule:nonzero;"/></g></g><g id="Circle"><circle cx="86" cy="86" r="85" style="fill:none;stroke:#ecaa94;stroke-width:1px;"/></g></svg>