<?xml version="1.0" encoding="UTF-8" standalone="no"?><!DOCTYPE svg PUBLIC "-//W3C//DTD SVG 1.1//EN" "http://www.w3.org/Graphics/SVG/1.1/DTD/svg11.dtd"><svg width="172px" height="172px" version="1.1" xmlns="http://www.w3.org/2000/svg" xmlns:xlink="http://www.w3.org/1999/xlink" xml:space="preserve" style="fill-rule:evenodd;clip-rule:evenodd;stroke-linecap:round;stroke-linejoin:round;stroke-miterlimit:1.5;"><g id="Man"><g id="Man1"><path d="M125.916,107.634c-7.127,-6.275 -15.06,-10.901 -23.731,-13.852c-0.024,0.042 -0.047,0.088 -0.078,0.14c1.737,7.47 -5.397,13.637 -16.238,13.637c-10.837,0 -17.976,-6.167 -16.237,-13.637c-0.028,-0.052 -0.049,-0.098 -0.075,-0.14c-8.679,2.951 -14.543,6.878 -22.063,12.594c-8.92,6.78 -10.955,21.416 -11.494,32.644c13.071,5.717 30.66,9.239 50.05,9.239c19.346,0 36.886,-3.507 49.95,-9.202c-0.645,-10.956 -2.673,-24.894 -10.084,-31.423Zm-42.445,-38.666c-0.516,1.605 -1.467,2.384 -2.924,2.384l-7.882,0c-1.099,0 -1.989,-0.973 -1.989,-2.155l-0.527,-3.528c0,-1.185 0.899,-2.153 1.99,-2.153l10.37,0c0.692,0 1.358,0.286 1.742,0.735c0.212,0.251 0.314,0.524 0.292,0.805c-0.129,1.627 -0.616,2.459 -1.072,3.912Zm4.014,-4.717c0.384,-0.449 1.059,-0.735 1.746,-0.735l10.368,0c1.096,0 1.986,0.968 1.986,2.153l-0.513,3.528c0,1.182 -0.896,2.155 -1.999,2.155l-7.879,0c-1.458,0 -2.413,-0.779 -2.92,-2.384c-0.464,-1.453 -0.945,-2.285 -1.072,-3.912c-0.028,-0.281 0.072,-0.554 0.283,-0.805Zm-0.472,5.174c0.882,2.78 2.766,3.361 4.181,3.361l7.879,0c1.834,0 3.318,-1.612 3.318,-3.589l0.524,-4.395c0,-1.97 -1.487,-3.586 -3.316,-3.586l-27.46,0c-1.827,0 -3.309,1.616 -3.309,3.586l0.516,4.395c0,1.977 1.485,3.589 3.319,3.589l7.882,0c1.416,0 3.293,-0.581 4.177,-3.361c0.487,-1.52 1,-3.336 1.142,-5.109c0,-0.055 -0.027,-0.12 -0.027,-0.17l0.06,0c0,0.05 -0.027,0.115 -0.027,0.17c0.146,1.773 0.657,3.589 1.141,5.109Zm-21.114,-1.837c0.464,0.651 1.409,0.317 1.409,0.317c0,0 -2.092,-15.267 0.043,-18.082c3.926,-5.159 5.537,-1.727 18.473,-1.594c12.941,-0.133 14.543,-3.565 18.478,1.594c2.13,2.815 0.031,18.082 0.031,18.082c0,0 0.95,0.334 1.417,-0.317c1.403,-1.961 3.36,-8.987 3.407,-12.278c0.06,-4.227 -0.067,-10.273 -2.113,-16.113c-0.814,-2.322 -0.957,-5.462 -0.957,-5.462c0,0 -2.1,-0.343 -2.942,-1.193c-1.271,-1.281 -1.468,-4.362 -1.468,-4.362c0,0 -2.733,1.281 -3.938,0.845c-1.759,-0.644 -4.101,-3.059 -4.101,-3.059c0,0 -1.587,2.024 -2.562,1.938c-1.63,-0.148 -7.153,-4.163 -7.153,-4.163c0,0 -1.507,4.015 -3.146,4.163c-0.966,0.086 -2.55,-1.938 -2.55,-1.938c0,0 -2.749,2.415 -4.509,3.059c-1.197,0.436 -3.94,-0.845 -3.94,-0.845c0,0 0.014,3.214 -1.252,4.495c-1.263,1.273 -3.507,1.661 -3.507,1.661c0,0 -0.232,1.875 -0.676,4.52c-0.981,5.838 -1.896,9.676 -1.757,16.283c0.122,5.785 1.91,10.488 3.313,12.449Z" style="fill-rule:nonzero;"/></g></g><g id="Circle"><circle cx="86" cy="86" r="85" style="fill:none;stroke:#ecaa94;stroke-width:1px;"/></g></svg>