<?xml version="1.0" encoding="UTF-8" standalone="no"?><!DOCTYPE svg PUBLIC "-//W3C//DTD SVG 1.1//EN" "http://www.w3.org/Graphics/SVG/1.1/DTD/svg11.dtd"><svg width="172px" height="172px" version="1.1" xmlns="http://www.w3.org/2000/svg" xmlns:xlink="http://www.w3.org/1999/xlink" xml:space="preserve" style="fill-rule:evenodd;clip-rule:evenodd;stroke-linecap:round;stroke-linejoin:round;stroke-miterlimit:1.5;"><g id="Woman"><g id="Woman1"><path d="M134.247,127.948c-2.423,-14.329 -21.884,-22.601 -30.261,-26.392c-0.031,0.042 11.822,9.027 12.885,14.28c-6.361,-1.136 -11.479,-4.027 -20.571,0.434c-8.422,8.739 -10.206,24.667 -10.289,25.436c0,-0.014 -0.007,-0.07 -0.01,-0.094c-0.003,0.024 -0.01,0.08 -0.01,0.094c-0.083,-0.769 -1.865,-16.697 -10.292,-25.436c-9.088,-4.461 -14.207,-1.57 -20.568,-0.434c1.063,-5.253 12.916,-14.238 12.885,-14.28c-8.378,3.791 -27.837,12.063 -30.263,26.392c-0.76,4.517 -1.33,8.935 -1.751,12.8c13.51,4.892 30.917,7.872 49.996,7.872c19.087,0 36.493,-2.982 50.004,-7.875c-0.423,-3.865 -0.991,-8.285 -1.755,-12.797Zm-73.253,-46.824c-0.295,2.809 -7.103,8.047 -5.665,9.227c2.755,2.252 15.026,0.682 19.276,1.129c-6.589,-5.022 -11.02,-14.231 -11.02,-24.782c0,-2.724 -0.038,-4.629 0.125,-7.837c9.047,-3.09 7.65,-14.005 8.133,-14.419c3.624,8.812 23.374,15.915 36.307,14.391c0.247,3.475 0.263,5.133 0.263,7.865c0,10.551 -4.427,19.76 -11.016,24.782c8.683,-3.072 18.648,0.333 20.169,-2.478c1.522,-2.809 -6.556,-8.223 -5.672,-9.035c0.883,-0.813 10.094,1.189 8.543,-0.838c-8.993,-11.761 -7.291,-24.786 -7.291,-24.786c0,-18.126 -9.974,-30.963 -24.963,-30.963c-6.767,0 -17.895,4.173 -20.312,12.091c-8.819,3.663 -9.678,8.127 -9.025,18.872c0.638,10.415 -8.278,26.337 -8.278,27.354c0,1.017 10.718,-3.39 10.426,-0.573Z" style="fill-rule:nonzero;"/></g><path id="Glasses" d="M93.09,68.695c-1.767,0 -3.193,-1.424 -3.193,-3.186c0,-1.759 1.426,-3.188 3.193,-3.188l4.414,0c1.768,0 3.194,1.429 3.194,3.188c0,1.762 -1.426,3.186 -3.194,3.186l-4.414,0Zm-14.521,0l-4.418,0c-1.764,0 -3.193,-1.424 -3.193,-3.186c0,-1.759 1.429,-3.188 3.193,-3.188l4.418,0c1.758,0 3.187,1.429 3.187,3.188c0,1.762 -1.429,3.186 -3.187,3.186Zm24.147,-3.325c0,-2.675 -2.182,-4.865 -4.873,-4.865l-5.136,0c-1.902,0 -3.532,1.107 -4.339,2.701c-0.672,-0.316 -1.481,-0.565 -2.476,-0.565c-1.064,0 -1.923,0.271 -2.623,0.623c-0.788,-1.625 -2.443,-2.759 -4.371,-2.759l-5.133,0c-2.688,0 -4.873,2.19 -4.873,4.865c0,2.688 2.185,4.876 4.873,4.876l5.133,0c2.505,0 4.55,-1.905 4.819,-4.338c0.295,-0.278 0.98,-0.777 2.175,-0.777c1.017,0 1.633,0.354 1.986,0.634c0.199,2.497 2.279,4.481 4.829,4.481l5.136,0c2.691,0 4.873,-2.188 4.873,-4.876Z" style="fill-rule:nonzero;"/></g><g id="Circle"><circle cx="86" cy="86" r="85" style="fill:none;stroke:#ecaa94;stroke-width:1px;"/></g></svg>