<?xml version="1.0" encoding="UTF-8" standalone="no"?><!DOCTYPE svg PUBLIC "-//W3C//DTD SVG 1.1//EN" "http://www.w3.org/Graphics/SVG/1.1/DTD/svg11.dtd"><svg width="100%" height="100%" viewBox="0 0 172 172" version="1.1" xmlns="http://www.w3.org/2000/svg" xmlns:xlink="http://www.w3.org/1999/xlink" xml:space="preserve" style="fill-rule:evenodd;clip-rule:evenodd;stroke-linecap:round;stroke-linejoin:round;stroke-miterlimit:1.5;"><g id="Woman"><g id="Woman1"><path d="M127.284,114.146c-2.074,-12.261 -18.726,-19.339 -25.893,-22.583c-0.027,0.036 10.115,7.725 11.025,12.219c-5.443,-0.972 -9.823,-3.445 -17.602,0.371c-7.207,7.478 -8.733,21.108 -8.804,21.765c0,-0.012 -0.006,-0.06 -0.009,-0.081c-0.003,0.021 -0.008,0.069 -0.008,0.081c-0.071,-0.657 -1.596,-14.287 -8.807,-21.765c-7.777,-3.816 -12.156,-1.343 -17.599,-0.371c0.909,-4.494 11.051,-12.183 11.025,-12.219c-7.169,3.244 -23.82,10.322 -25.895,22.583c-0.651,3.865 -1.138,7.645 -1.498,10.953c11.559,4.185 26.454,6.736 42.779,6.736c16.333,0 31.226,-2.552 42.787,-6.739c-0.361,-3.307 -0.847,-7.089 -1.501,-10.95Zm-62.68,-40.066c-0.253,2.404 -6.078,6.885 -4.848,7.895c2.357,1.927 12.857,0.584 16.494,0.967c-5.638,-4.298 -9.43,-12.178 -9.43,-21.205c0,-2.331 -0.032,-3.961 0.108,-6.707c7.741,-2.644 6.546,-11.983 6.959,-12.338c3.1,7.541 20,13.619 31.066,12.314c0.211,2.974 0.225,4.393 0.225,6.731c0,9.027 -3.787,16.907 -9.425,21.205c7.43,-2.629 15.956,0.284 17.258,-2.12c1.301,-2.404 -5.611,-7.037 -4.854,-7.732c0.756,-0.696 8.637,1.018 7.31,-0.717c-7.695,-10.064 -6.238,-21.209 -6.238,-21.209c0,-15.509 -8.535,-26.494 -21.36,-26.494c-5.791,0 -15.313,3.571 -17.381,10.346c-7.546,3.135 -8.281,6.954 -7.722,16.148c0.546,8.912 -7.084,22.536 -7.084,23.406c0,0.87 9.172,-2.901 8.922,-0.49Z" style="fill-rule:nonzero;"/></g></g><g id="Circle"><circle cx="86" cy="86" r="85" style="fill:none;stroke:#ecaa94;stroke-width:1px;"/></g></svg>